                            <svg xmlns:dc="http://purl.org/dc/elements/1.1/" xmlns:cc="http://creativecommons.org/ns#"
                                xmlns:rdf="http://www.w3.org/1999/02/22-rdf-syntax-ns#" xmlns:svg="http://www.w3.org/2000/svg"
                                xmlns="http://www.w3.org/2000/svg" viewBox="0 0 892 945.43201" height="43px" height="45px"
                                xml:space="preserve" id="svg3" version="1.1">
                                <style type="text/css">
                                embed:hover .g14{
                                fill: red!important;
                                    }
                                </style>
                                <defs id="defs6">
                                    <clipPath id="clipPath18" clipPathUnits="userSpaceOnUse">
                                        <path id="path16" d="M 0,709.074 H 669 V 0 H 0 Z" />
                                    </clipPath>
                                </defs>
                                <g transform="matrix(1.3333333,0,0,-1.3333333,0,945.432)" id="g10">
                                    <g id="g12">
                                        <g clip-path="url(#clipPath18)" id="g14" >
                                            <g transform="translate(542.3457,595.9668)" id="g20">
                                                <path class="g14" id="path22" style="fill:none;stroke:#ff0000;stroke-width:10;stroke-linecap:butt;stroke-linejoin:miter;stroke-miterlimit:10;stroke-dasharray:none;stroke-opacity:1"
                                                    d="m 0,0 c -4.615,3.674 -15.846,-21.467 -19.846,-60.467 -4,-39 3,-53 8.366,-61.247 28.103,-39.417 44.634,-87.654 44.634,-139.753 0,-133.1 -107.899,-241 -241,-241 -133.1,0 -241,107.9 -241,241 0,133.101 107.9,241 241,241 45,-2 83,10 103,41 20,31 29.097,89.001 21,92 -41,-37 -83.216,-40 -124,-40 -184.463,0 -334,-149.537 -334,-334 0,-184.463 149.537,-334 334,-334 184.463,0 334,149.537 334,334 C 126.154,-155.574 76.876,-61.191 0,0 Z" />
                                            </g>
                                        </g>
                                    </g>
                                </g>
                            </svg>