<svg xmlns="http://www.w3.org/2000/svg" viewBox="0 0 892 945.432" height="45" xml:space="preserve" id="svg3" version="1.1"><style/><defs id="defs6"><clipPath id="clipPath18" clipPathUnits="userSpaceOnUse"><path id="path16" d="M0 709.074h669V0H0z"/></clipPath></defs><g transform="matrix(1.33333 0 0 -1.33333 0 945.432)" id="g10"><g id="g12"><g clip-path="url(#clipPath18)" id="g14"><g transform="translate(542.346 595.967)" id="g20"><path class="g14" id="path22" d="M0 0c-4.615 3.674-15.846-21.467-19.846-60.467s3-53 8.366-61.247c28.103-39.417 44.634-87.654 44.634-139.753 0-133.1-107.899-241-241-241-133.1 0-241 107.9-241 241 0 133.101 107.9 241 241 241 45-2 83 10 103 41s29.097 89.001 21 92c-41-37-83.216-40-124-40-184.463 0-334-149.537-334-334s149.537-334 334-334 334 149.537 334 334C126.154-155.574 76.876-61.191 0 0z" fill="none" stroke="red" stroke-width="10" stroke-linecap="butt" stroke-linejoin="miter" stroke-miterlimit="10" stroke-dasharray="none" stroke-opacity="1"/></g></g></g></g></svg>